<svg width="160" height="160" viewBox="0 0 160 160" fill="none" xmlns="http://www.w3.org/2000/svg">
<path d="M82.7993 146.667H7.99935C6.58616 146.663 5.23206 146.099 4.23278 145.1C3.23349 144.101 2.67024 142.747 2.66602 141.333V8.00009C2.67024 6.5869 3.23349 5.2328 4.23278 4.23352C5.23206 3.23424 6.58616 2.67098 7.99935 2.66676H89.5727C89.9195 2.6659 90.263 2.73381 90.5834 2.86655C90.9038 2.99929 91.1948 3.19423 91.4394 3.44009L108.559 20.5601C108.805 20.8047 109 21.0956 109.133 21.416C109.266 21.7364 109.334 22.0799 109.333 22.4268V66.7468L82.7993 146.667Z" fill="#E1EFFF"/>
<path d="M74.6667 21.3333H37.3333C34.3878 21.3333 32 23.7211 32 26.6666C32 29.6121 34.3878 31.9999 37.3333 31.9999H74.6667C77.6122 31.9999 80 29.6121 80 26.6666C80 23.7211 77.6122 21.3333 74.6667 21.3333Z" fill="#5ABAB7"/>
<path d="M111.999 157.333C137.036 157.333 157.333 137.037 157.333 112C157.333 86.9632 137.036 66.6667 111.999 66.6667C86.9624 66.6667 66.666 86.9632 66.666 112C66.666 137.037 86.9624 157.333 111.999 157.333Z" fill="#CD4C60"/>
<path d="M131.759 124.24C132.253 124.734 132.645 125.32 132.912 125.965C133.179 126.61 133.317 127.302 133.317 128C133.317 128.698 133.179 129.39 132.912 130.035C132.645 130.68 132.253 131.266 131.759 131.76C131.265 132.254 130.679 132.646 130.034 132.913C129.389 133.18 128.697 133.318 127.999 133.318C127.301 133.318 126.609 133.18 125.964 132.913C125.319 132.646 124.733 132.254 124.239 131.76L111.999 119.52L99.7591 131.76C98.7619 132.757 97.4094 133.318 95.9991 133.318C94.5888 133.318 93.2363 132.757 92.2391 131.76C91.2419 130.763 90.6816 129.41 90.6816 128C90.6816 126.59 91.2419 125.237 92.2391 124.24L104.479 112L92.2391 99.7601C91.2419 98.7628 90.6816 97.4103 90.6816 96.0001C90.6816 94.5898 91.2419 93.2373 92.2391 92.2401C93.2363 91.2428 94.5888 90.6826 95.9991 90.6826C97.4094 90.6826 98.7619 91.2428 99.7591 92.2401L111.999 104.48L124.239 92.2401C125.236 91.2428 126.589 90.6826 127.999 90.6826C129.409 90.6826 130.762 91.2428 131.759 92.2401C132.756 93.2373 133.317 94.5898 133.317 96.0001C133.317 97.4103 132.756 98.7628 131.759 99.7601L119.519 112L131.759 124.24Z" fill="white"/>
<path d="M109.093 21.3334H95.9993C94.5862 21.3292 93.2321 20.7659 92.2328 19.7666C91.2335 18.7674 90.6702 17.4133 90.666 16.0001V2.90674C90.9513 3.04091 91.2126 3.22109 91.4394 3.44007L108.559 20.5601C108.778 20.7869 108.959 21.0481 109.093 21.3334Z" fill="#9EBBCE"/>
<path d="M93.3333 50.6666H18.6667C17.9594 50.6666 17.2811 50.3856 16.781 49.8855C16.281 49.3854 16 48.7072 16 47.9999C16 47.2927 16.281 46.6144 16.781 46.1143C17.2811 45.6142 17.9594 45.3333 18.6667 45.3333H93.3333C94.0406 45.3333 94.7189 45.6142 95.219 46.1143C95.7191 46.6144 96 47.2927 96 47.9999C96 48.7072 95.7191 49.3854 95.219 49.8855C94.7189 50.3856 94.0406 50.6666 93.3333 50.6666Z" fill="#B0CCDD"/>
<path d="M85.3333 63.9998H18.6667C17.9594 63.9998 17.2811 63.7189 16.781 63.2188C16.281 62.7187 16 62.0404 16 61.3332C16 60.6259 16.281 59.9476 16.781 59.4476C17.2811 58.9475 17.9594 58.6665 18.6667 58.6665H85.3333C86.0406 58.6665 86.7189 58.9475 87.219 59.4476C87.7191 59.9476 88 60.6259 88 61.3332C88 62.0404 87.7191 62.7187 87.219 63.2188C86.7189 63.7189 86.0406 63.9998 85.3333 63.9998Z" fill="#B0CCDD"/>
<path d="M72 77.3333H58.6667C57.9594 77.3333 57.2811 77.0524 56.781 76.5523C56.2809 76.0522 56 75.3739 56 74.6667C56 73.9594 56.2809 73.2811 56.781 72.781C57.2811 72.2809 57.9594 72 58.6667 72H72C72.7072 72 73.3855 72.2809 73.8856 72.781C74.3857 73.2811 74.6667 73.9594 74.6667 74.6667C74.6667 75.3739 74.3857 76.0522 73.8856 76.5523C73.3855 77.0524 72.7072 77.3333 72 77.3333Z" fill="#B0CCDD"/>
<path d="M48 77.3333H18.6667C17.9594 77.3333 17.2811 77.0524 16.781 76.5523C16.281 76.0522 16 75.3739 16 74.6667C16 73.9594 16.281 73.2811 16.781 72.781C17.2811 72.2809 17.9594 72 18.6667 72H48C48.7072 72 49.3855 72.2809 49.8856 72.781C50.3857 73.2811 50.6667 73.9594 50.6667 74.6667C50.6667 75.3739 50.3857 76.0522 49.8856 76.5523C49.3855 77.0524 48.7072 77.3333 48 77.3333Z" fill="#B0CCDD"/>
<path d="M61.3327 90.6666H37.3327C36.6254 90.6666 35.9472 90.3856 35.4471 89.8855C34.947 89.3854 34.666 88.7072 34.666 87.9999C34.666 87.2927 34.947 86.6144 35.4471 86.1143C35.9472 85.6142 36.6254 85.3333 37.3327 85.3333H61.3327C62.0399 85.3333 62.7182 85.6142 63.2183 86.1143C63.7184 86.6144 63.9993 87.2927 63.9993 87.9999C63.9993 88.7072 63.7184 89.3854 63.2183 89.8855C62.7182 90.3856 62.0399 90.6666 61.3327 90.6666Z" fill="#B0CCDD"/>
<path d="M26.6667 90.6666H18.6667C17.9594 90.6666 17.2811 90.3856 16.781 89.8855C16.281 89.3854 16 88.7072 16 87.9999C16 87.2927 16.281 86.6144 16.781 86.1143C17.2811 85.6142 17.9594 85.3333 18.6667 85.3333H26.6667C27.3739 85.3333 28.0522 85.6142 28.5523 86.1143C29.0524 86.6144 29.3333 87.2927 29.3333 87.9999C29.3333 88.7072 29.0524 89.3854 28.5523 89.8855C28.0522 90.3856 27.3739 90.6666 26.6667 90.6666Z" fill="#B0CCDD"/>
<path d="M56 104H18.6667C17.9594 104 17.2811 103.719 16.781 103.219C16.281 102.719 16 102.04 16 101.333C16 100.626 16.281 99.9476 16.781 99.4476C17.2811 98.9475 17.9594 98.6665 18.6667 98.6665H56C56.7072 98.6665 57.3855 98.9475 57.8856 99.4476C58.3857 99.9476 58.6667 100.626 58.6667 101.333C58.6667 102.04 58.3857 102.719 57.8856 103.219C57.3855 103.719 56.7072 104 56 104Z" fill="#B0CCDD"/>
<path d="M50.6667 117.333H18.6667C17.9594 117.333 17.2811 117.052 16.781 116.552C16.281 116.052 16 115.374 16 114.667C16 113.959 16.281 113.281 16.781 112.781C17.2811 112.281 17.9594 112 18.6667 112H50.6667C51.3739 112 52.0522 112.281 52.5523 112.781C53.0524 113.281 53.3333 113.959 53.3333 114.667C53.3333 115.374 53.0524 116.052 52.5523 116.552C52.0522 117.052 51.3739 117.333 50.6667 117.333Z" fill="#B0CCDD"/>
<path d="M48 130.667H18.6667C17.9594 130.667 17.2811 130.386 16.781 129.886C16.281 129.385 16 128.707 16 128C16 127.293 16.281 126.614 16.781 126.114C17.2811 125.614 17.9594 125.333 18.6667 125.333H48C48.7072 125.333 49.3855 125.614 49.8856 126.114C50.3857 126.614 50.6667 127.293 50.6667 128C50.6667 128.707 50.3857 129.385 49.8856 129.886C49.3855 130.386 48.7072 130.667 48 130.667Z" fill="#B0CCDD"/>
</svg>
