<svg width="24" height="25" viewBox="0 0 24 25" fill="none" xmlns="http://www.w3.org/2000/svg">
<path fill-rule="evenodd" clip-rule="evenodd" d="M11.4697 15.9697C11.7626 15.6768 12.2374 15.6768 12.5303 15.9697L14.5303 17.9697C14.8232 18.2626 14.8232 18.7374 14.5303 19.0303C14.2374 19.3232 13.7626 19.3232 13.4697 19.0303L12.75 18.3107V22.5C12.75 22.9142 12.4142 23.25 12 23.25C11.5858 23.25 11.25 22.9142 11.25 22.5V18.3107L10.5303 19.0303C10.2374 19.3232 9.76256 19.3232 9.46967 19.0303C9.17678 18.7374 9.17678 18.2626 9.46967 17.9697L11.4697 15.9697Z" fill="#010409"/>
<path d="M12.4762 4.25C9.7261 4.25 7.5119 6.45083 7.5119 9.14706C7.5119 9.60922 7.5766 10.0555 7.69729 10.4781C8.19449 10.6216 8.65991 10.8389 9.08045 11.1171C9.42592 11.3456 9.52072 11.8109 9.29219 12.1564C9.06366 12.5019 8.59835 12.5967 8.25288 12.3681C7.87207 12.1162 7.43917 11.9355 6.9733 11.8451C6.75147 11.8021 6.52165 11.7794 6.28571 11.7794C4.3246 11.7794 2.75 13.3482 2.75 15.2647C2.75 17.1812 4.3246 18.75 6.28571 18.75C6.69993 18.75 7.03571 19.0858 7.03571 19.5C7.03571 19.9142 6.69993 20.25 6.28571 20.25C3.51296 20.25 1.25 18.0264 1.25 15.2647C1.25 12.5605 3.41987 10.3721 6.11351 10.2823C6.04673 9.91355 6.0119 9.53413 6.0119 9.14706C6.0119 5.60572 8.91446 2.75 12.4762 2.75C15.6343 2.75 18.2724 4.99369 18.8314 7.97127C21.1313 8.94751 22.75 11.2093 22.75 13.8529C22.75 16.9269 20.5623 19.4843 17.6568 20.1057C17.2518 20.1923 16.8532 19.9341 16.7666 19.5291C16.68 19.124 16.9381 18.7254 17.3432 18.6388C19.5829 18.1598 21.25 16.193 21.25 13.8529C21.25 11.7162 19.8607 9.89087 17.9124 9.22463C17.4038 9.05072 16.8568 8.95588 16.2857 8.95588C15.7031 8.95588 15.1455 9.05458 14.6283 9.23526C14.2372 9.37185 13.8095 9.16557 13.6729 8.77453C13.5363 8.38348 13.7426 7.95575 14.1336 7.81916C14.8079 7.58364 15.5326 7.45588 16.2857 7.45588C16.5812 7.45588 16.8723 7.47555 17.1577 7.51367C16.477 5.61631 14.6422 4.25 12.4762 4.25Z" fill="#010409"/>
</svg>
