<svg width="136" height="135" viewBox="0 0 136 135" fill="none" xmlns="http://www.w3.org/2000/svg">
<path d="M127.695 53.6845L120.152 61.2278L104.641 76.7502L85.5086 95.8823L85.4751 95.927C85.4304 95.9605 85.3969 96.0052 85.3521 96.0276C84.5587 96.7651 83.5418 97.2233 82.4466 97.2904L71.0478 98.1174C69.3156 98.2403 67.8964 96.8098 68.0081 95.0889L68.8351 83.6789C68.9133 82.5949 69.3603 81.578 70.1091 80.7845C70.1426 80.7398 70.1761 80.7063 70.2208 80.6616L70.2544 80.6281L100.551 50.3207L104.887 45.9847L112.441 38.4414L127.695 53.6845Z" fill="url(#paint0_linear_371_70187)"/>
<path d="M132.691 37.448L128.69 33.4472C125.584 30.3405 120.543 30.3405 117.437 33.4472L112.441 38.4426L127.696 53.6968L132.691 48.7015C135.798 45.5948 135.798 40.5547 132.691 37.448Z" fill="url(#paint1_linear_371_70187)"/>
<path d="M68.8351 83.6795L68.0081 95.0895C67.8964 96.8105 69.3156 98.2409 71.0478 98.118L82.4466 97.291C83.5417 97.2239 84.5587 96.7658 85.3521 96.0282C85.3968 96.0058 85.4304 95.9611 85.4751 95.9276L85.5086 95.8829L104.641 76.7508V125.609C104.641 130.694 100.528 134.806 95.4434 134.806H10.1426C5.05781 134.806 0.945312 130.694 0.945312 125.609V31.7145L31.3532 0.703125H95.4434C100.528 0.703125 104.641 4.81562 104.641 9.90037V46.2312L100.551 50.3213L70.2543 80.6287L70.2208 80.6622C70.1761 80.7069 70.1426 80.7404 70.1091 80.7851C69.3603 81.5786 68.9133 82.5955 68.8351 83.6795Z" fill="#FF7A59"/>
<path d="M22.1672 31.111H0.945312L31.3532 0.703125V21.925C31.3532 26.9985 27.2407 31.111 22.1672 31.111Z" fill="#8098F9"/>
<path d="M85.508 95.8837L85.4633 95.9284C85.4186 95.9619 85.3851 96.0066 85.3404 96.0401C84.5469 96.7777 83.53 97.2247 82.446 97.303L71.036 98.1299C69.3151 98.2529 67.8846 96.8224 67.9964 95.1014L68.8345 83.6915C68.9127 82.6075 69.3598 81.5793 70.1085 80.7971C70.142 80.7524 70.1755 80.7189 70.2202 80.6741L70.2538 80.6406L85.508 95.8837Z" fill="url(#paint2_linear_371_70187)"/>
<path d="M87.2274 29.1562H41.0065C39.9225 29.1562 39.0508 30.0279 39.0508 31.1119C39.0508 32.1959 39.9225 33.0676 41.0065 33.0676H87.2274C88.3114 33.0676 89.1831 32.1959 89.1831 31.1119C89.1831 30.0279 88.3114 29.1562 87.2274 29.1562Z" fill="#FFFCEE"/>
<path d="M74.1207 54.9375H25.3854C24.3014 54.9375 23.4297 55.8092 23.4297 56.8932C23.4297 57.9772 24.3014 58.8488 25.3854 58.8488H74.1207C75.2047 58.8488 76.0764 57.9772 76.0764 56.8932C76.0764 55.8092 75.2047 54.9375 74.1207 54.9375Z" fill="#FFFCEE"/>
<path d="M25.3854 84.6301H49.7586C50.8426 84.6301 51.7143 83.7584 51.7143 82.6744C51.7143 81.5904 50.8426 80.7188 49.7586 80.7188H25.3854C24.3014 80.7188 23.4297 81.5904 23.4297 82.6744C23.4297 83.7584 24.3014 84.6301 25.3854 84.6301Z" fill="#FFFCEE"/>
<path d="M74.1207 106.512H25.3854C24.3014 106.512 23.4297 107.383 23.4297 108.467C23.4297 109.551 24.3014 110.423 25.3854 110.423H74.1207C75.2047 110.423 76.0764 109.551 76.0764 108.467C76.0764 107.383 75.2047 106.512 74.1207 106.512Z" fill="#FFFCEE"/>
<defs>
<linearGradient id="paint0_linear_371_70187" x1="68.002" y1="68.2831" x2="127.695" y2="68.2831" gradientUnits="userSpaceOnUse">
<stop stop-color="#C6D7FE"/>
<stop offset="0.5" stop-color="#8098F9"/>
<stop offset="1" stop-color="#3E57DA"/>
</linearGradient>
<linearGradient id="paint1_linear_371_70187" x1="112.441" y1="42.407" x2="135.021" y2="42.407" gradientUnits="userSpaceOnUse">
<stop stop-color="#C6D7FE"/>
<stop offset="0.5" stop-color="#8098F9"/>
<stop offset="1" stop-color="#3E57DA"/>
</linearGradient>
<linearGradient id="paint2_linear_371_70187" x1="67.9902" y1="89.389" x2="85.508" y2="89.389" gradientUnits="userSpaceOnUse">
<stop stop-color="#C6D7FE"/>
<stop offset="0.5" stop-color="#8098F9"/>
<stop offset="1" stop-color="#3E57DA"/>
</linearGradient>
</defs>
</svg>
