<svg width="33" height="32" viewBox="0 0 33 32" fill="none" xmlns="http://www.w3.org/2000/svg">
<path d="M27.043 19.9986V23.9986C27.1213 24.6741 27.0458 25.3586 26.8223 26.0009C26.5987 26.6432 26.2328 27.2266 25.7519 27.7074C25.271 28.1883 24.6876 28.5542 24.0453 28.7778C23.4031 29.0014 22.7186 29.0769 22.043 28.9986H8.70968C8.03414 29.0769 7.34963 29.0014 6.70737 28.7778C6.06511 28.5542 5.48171 28.1883 5.00083 27.7074C4.51995 27.2266 4.15403 26.6432 3.93044 26.0009C3.70685 25.3586 3.63139 24.6741 3.70968 23.9986V10.6653C3.63139 9.9897 3.70685 9.3052 3.93044 8.66294C4.15403 8.02067 4.51995 7.43728 5.00083 6.9564C5.48171 6.47552 6.06511 6.1096 6.70737 5.88601C7.34963 5.66242 8.03414 5.58695 8.70968 5.66525H12.7097C12.9749 5.66525 13.2293 5.77061 13.4168 5.95814C13.6043 6.14568 13.7097 6.40003 13.7097 6.66525C13.7097 6.93047 13.6043 7.18482 13.4168 7.37236C13.2293 7.55989 12.9749 7.66525 12.7097 7.66525H8.70968C6.60702 7.66525 5.70968 8.56258 5.70968 10.6653V23.9986C5.70968 26.1013 6.60702 26.9986 8.70968 26.9986H22.043C24.1457 26.9986 25.043 26.1013 25.043 23.9986V19.9986C25.043 19.7334 25.1484 19.479 25.3359 19.2915C25.5234 19.1039 25.7778 18.9986 26.043 18.9986C26.3082 18.9986 26.5626 19.1039 26.7501 19.2915C26.9377 19.479 27.043 19.7334 27.043 19.9986ZM29.7097 8.07325C29.7096 8.45859 29.6329 8.84007 29.4841 9.19554C29.3353 9.551 29.1174 9.87337 28.843 10.1439L16.8924 22.0399C16.7046 22.2268 16.4506 22.3317 16.1857 22.3319H11.3764C11.1111 22.3319 10.8568 22.2266 10.6692 22.039C10.4817 21.8515 10.3764 21.5971 10.3764 21.3319V16.5173C10.3761 16.3862 10.4018 16.2565 10.4519 16.1354C10.502 16.0144 10.5756 15.9044 10.6684 15.8119L22.5657 3.86525C22.8361 3.59172 23.1581 3.37471 23.5132 3.22684C23.8682 3.07896 24.2491 3.00319 24.6337 3.00392C25.0182 3.00286 25.399 3.07809 25.7542 3.22525C26.1095 3.37241 26.4319 3.58859 26.703 3.86125L28.8524 5.99858C29.1257 6.27025 29.3423 6.59359 29.4895 6.94977C29.6367 7.30595 29.7115 7.68786 29.7097 8.07325ZM24.199 11.9493L20.759 8.50925L12.3764 16.9319V20.3319H15.7764L24.199 11.9493ZM27.7097 8.07058C27.7106 7.94908 27.6874 7.82859 27.6417 7.71602C27.5959 7.60346 27.5284 7.50102 27.443 7.41458L25.2964 5.26925C25.2103 5.18365 25.1082 5.116 24.9958 5.07022C24.8834 5.02444 24.763 5.00145 24.6417 5.00258C24.5204 5.00182 24.4001 5.02498 24.2878 5.07074C24.1755 5.11649 24.0733 5.18395 23.987 5.26925L22.1764 7.09192L25.6164 10.5386L27.4364 8.72658C27.523 8.64069 27.5917 8.5385 27.6386 8.42591C27.6855 8.31332 27.7097 8.19256 27.7097 8.07058Z" fill="white"/>
</svg>
