<svg width="17" height="16" viewBox="0 0 17 16" fill="none" xmlns="http://www.w3.org/2000/svg">
<g clip-path="url(#clip0_371_53813)">
<rect x="0.5" width="16" height="16" rx="8" fill="#FF7A59"/>
<path d="M5.0134 8.52684H10.748L8.24266 11.0978C8.04244 11.3033 8.04244 11.6404 8.24266 11.8459C8.44288 12.0514 8.76632 12.0514 8.96655 11.8459L12.3498 8.37405C12.5501 8.16859 12.5501 7.83668 12.3498 7.63122L8.97168 4.1541C8.77146 3.94863 8.44802 3.94863 8.24779 4.1541C8.04757 4.35957 8.04757 4.69147 8.24779 4.89694L10.748 7.47316H5.0134C4.73103 7.47316 4.5 7.71024 4.5 8C4.5 8.28976 4.73103 8.52684 5.0134 8.52684Z" fill="white"/>
</g>
<defs>
<clipPath id="clip0_371_53813">
<rect x="0.5" width="16" height="16" rx="8" fill="white"/>
</clipPath>
</defs>
</svg>
