<svg width="20" height="20" viewBox="0 0 20 20" fill="none" xmlns="http://www.w3.org/2000/svg">
<g id="briefcase">
<path id="Vector" fill-rule="evenodd" clip-rule="evenodd" d="M6.71286 1.71272C7.14263 1.28295 7.72553 1.0415 8.33332 1.0415H11.6666C12.2744 1.0415 12.8573 1.28295 13.2871 1.71272C13.7169 2.14249 13.9583 2.72538 13.9583 3.33317V4.37484H15.8333C16.4411 4.37484 17.024 4.61628 17.4538 5.04605C17.8835 5.47582 18.125 6.05872 18.125 6.6665V11.0311C18.1252 11.0407 18.1252 11.0503 18.125 11.0598V14.9998C18.125 15.6076 17.8835 16.1905 17.4538 16.6203C17.024 17.0501 16.4411 17.2915 15.8333 17.2915H4.16665C3.55886 17.2915 2.97597 17.0501 2.5462 16.6203C2.11643 16.1905 1.87498 15.6076 1.87498 14.9998V11.0598C1.87476 11.0503 1.87476 11.0407 1.87498 11.0311V6.6665C1.87498 6.05872 2.11642 5.47582 2.5462 5.04605C2.97597 4.61628 3.55886 4.37484 4.16665 4.37484H6.04165V3.33317C6.04165 2.72538 6.28309 2.14249 6.71286 1.71272ZM7.29165 4.37484H12.7083V3.33317C12.7083 3.0569 12.5986 2.79195 12.4032 2.5966C12.2079 2.40125 11.9429 2.2915 11.6666 2.2915H8.33332C8.05705 2.2915 7.7921 2.40125 7.59675 2.5966C7.4014 2.79195 7.29165 3.0569 7.29165 3.33317V4.37484ZM4.16665 5.62484C3.89038 5.62484 3.62543 5.73458 3.43008 5.92993C3.23473 6.12528 3.12498 6.39024 3.12498 6.6665V10.6194C5.26136 11.4303 7.57769 11.8748 9.99998 11.8748C12.3498 11.8777 14.6801 11.4518 16.875 10.6193V6.6665C16.875 6.39024 16.7652 6.12528 16.5699 5.92993C16.3745 5.73458 16.1096 5.62484 15.8333 5.62484H4.16665ZM9.99998 13.1248C12.344 13.1276 14.669 12.7297 16.875 11.9504L9.99998 13.1248ZM16.875 11.9504V14.9998C16.875 15.2761 16.7652 15.5411 16.5699 15.7364C16.3745 15.9318 16.1096 16.0415 15.8333 16.0415H4.16665C3.89038 16.0415 3.62543 15.9318 3.43008 15.7364C3.23473 15.5411 3.12498 15.2761 3.12498 14.9998V11.9506C5.27613 12.7109 7.59009 13.1248 9.99998 13.1248M9.37498 9.99984C9.37498 9.65466 9.6548 9.37484 9.99998 9.37484H10.0083C10.3535 9.37484 10.6333 9.65466 10.6333 9.99984C10.6333 10.345 10.3535 10.6248 10.0083 10.6248H9.99998C9.6548 10.6248 9.37498 10.345 9.37498 9.99984Z" fill="#111827"/>
</g>
</svg>
