<svg width="18" height="18" viewBox="0 0 18 18" fill="none" xmlns="http://www.w3.org/2000/svg">
<g id="fi_3126649" clip-path="url(#clip0_349_8371)">
<g id="Group">
<path id="Vector" d="M9 7.27734C10.6865 7.27734 12.0586 5.90527 12.0586 4.21875C12.0586 2.53223 10.6865 1.16016 9 1.16016C7.31348 1.16016 5.94141 2.53223 5.94141 4.21875C5.94141 5.90527 7.31348 7.27734 9 7.27734ZM9 2.21484C10.105 2.21484 11.0039 3.11379 11.0039 4.21875C11.0039 5.32371 10.105 6.22266 9 6.22266C7.89504 6.22266 6.99609 5.32371 6.99609 4.21875C6.99609 3.11379 7.89504 2.21484 9 2.21484Z" fill="#A0AEC0"/>
<path id="Vector_2" d="M15.1875 7.27734C16.2537 7.27734 17.1211 6.40993 17.1211 5.34375C17.1211 4.27757 16.2537 3.41016 15.1875 3.41016C14.1213 3.41016 13.2539 4.27757 13.2539 5.34375C13.2539 6.40993 14.1213 7.27734 15.1875 7.27734ZM15.1875 4.46484C15.6721 4.46484 16.0664 4.85912 16.0664 5.34375C16.0664 5.82838 15.6721 6.22266 15.1875 6.22266C14.7029 6.22266 14.3086 5.82838 14.3086 5.34375C14.3086 4.85912 14.7029 4.46484 15.1875 4.46484Z" fill="#A0AEC0"/>
<path id="Vector_3" d="M15.6129 8.47266H14.7973C13.8361 8.47266 13.0064 9.0405 12.6284 9.85612C11.85 9.0064 10.7319 8.47266 9.49145 8.47266H8.50859C7.26813 8.47266 6.15006 9.0064 5.37166 9.85612C4.99356 9.0405 4.16387 8.47266 3.20273 8.47266H2.38711C1.07086 8.47266 0 9.53705 0 10.8454V14.6848C0 15.2528 0.463852 15.7148 1.03402 15.7148H4.25879C4.31286 16.3441 4.84204 16.8398 5.48515 16.8398H12.5149C13.158 16.8398 13.6871 16.3441 13.7412 15.7148H16.9292C17.5197 15.7148 18 15.2364 18 14.6482V10.8454C18 9.53705 16.9291 8.47266 15.6129 8.47266ZM1.05469 10.8454C1.05469 10.1186 1.65241 9.52734 2.38711 9.52734H3.20273C3.93743 9.52734 4.53516 10.1186 4.53516 10.8454V11.2064C4.18054 12.1298 4.25391 12.6831 4.25391 14.6602H1.05469V10.8454ZM12.6914 15.6086C12.6914 15.706 12.6122 15.7852 12.5149 15.7852H5.48511C5.38777 15.7852 5.30859 15.7059 5.30859 15.6086V12.7273C5.30859 10.9628 6.74409 9.52734 8.50855 9.52734H9.49141C11.2559 9.52734 12.6914 10.9628 12.6914 12.7273V15.6086ZM16.9453 14.6482C16.9453 14.6664 17.1419 14.6602 13.7461 14.6602C13.7461 12.6685 13.8189 12.1283 13.4648 11.2064V10.8454C13.4648 10.1186 14.0626 9.52734 14.7973 9.52734H15.6129C16.3476 9.52734 16.9453 10.1186 16.9453 10.8454V14.6482Z" fill="#A0AEC0"/>
<path id="Vector_4" d="M2.8125 7.27734C3.87868 7.27734 4.74609 6.40993 4.74609 5.34375C4.74609 4.27757 3.87868 3.41016 2.8125 3.41016C1.74632 3.41016 0.878906 4.27757 0.878906 5.34375C0.878906 6.40993 1.74632 7.27734 2.8125 7.27734ZM2.8125 4.46484C3.29713 4.46484 3.69141 4.85912 3.69141 5.34375C3.69141 5.82838 3.29713 6.22266 2.8125 6.22266C2.32787 6.22266 1.93359 5.82838 1.93359 5.34375C1.93359 4.85912 2.32787 4.46484 2.8125 4.46484Z" fill="#A0AEC0"/>
</g>
</g>
<defs>
<clipPath id="clip0_349_8371">
<rect width="18" height="18" fill="white"/>
</clipPath>
</defs>
</svg>
