<?xml version="1.0" encoding="UTF-8"?>
<svg xmlns="http://www.w3.org/2000/svg" xmlns:xlink="http://www.w3.org/1999/xlink" width="18px" height="18px" viewBox="0 0 18 18" version="1.1">
<g id="surface1">
<path style=" stroke:none;fill-rule:nonzero;fill:rgb(100%,100%,100%);fill-opacity:1;" d="M 15.25 3.734375 L 11.859375 0.527344 C 11.5 0.1875 11.027344 0 10.53125 0 L 4.078125 0 C 3.011719 0 2.144531 0.867188 2.144531 1.933594 L 2.144531 16.066406 C 2.144531 17.132812 3.011719 18 4.078125 18 L 13.921875 18 C 14.988281 18 15.855469 17.132812 15.855469 16.066406 L 15.855469 5.140625 C 15.855469 4.613281 15.636719 4.097656 15.25 3.734375 Z M 14.226562 4.21875 L 11.601562 4.21875 C 11.503906 4.21875 11.425781 4.140625 11.425781 4.042969 L 11.425781 1.570312 Z M 13.921875 16.945312 L 4.078125 16.945312 C 3.59375 16.945312 3.199219 16.550781 3.199219 16.066406 L 3.199219 1.933594 C 3.199219 1.449219 3.59375 1.054688 4.078125 1.054688 L 10.371094 1.054688 L 10.371094 4.042969 C 10.371094 4.722656 10.921875 5.273438 11.601562 5.273438 L 14.800781 5.273438 L 14.800781 16.066406 C 14.800781 16.550781 14.40625 16.945312 13.921875 16.945312 Z M 13.921875 16.945312 "/>
<path style=" stroke:none;fill-rule:nonzero;fill:rgb(100%,100%,100%);fill-opacity:1;" d="M 12.761719 7.03125 L 5.027344 7.03125 C 4.734375 7.03125 4.5 7.265625 4.5 7.558594 C 4.5 7.851562 4.734375 8.085938 5.027344 8.085938 L 12.761719 8.085938 C 13.054688 8.085938 13.289062 7.851562 13.289062 7.558594 C 13.289062 7.265625 13.054688 7.03125 12.761719 7.03125 Z M 12.761719 7.03125 "/>
<path style=" stroke:none;fill-rule:nonzero;fill:rgb(100%,100%,100%);fill-opacity:1;" d="M 12.761719 9.84375 L 5.027344 9.84375 C 4.734375 9.84375 4.5 10.078125 4.5 10.371094 C 4.5 10.664062 4.734375 10.898438 5.027344 10.898438 L 12.761719 10.898438 C 13.054688 10.898438 13.289062 10.664062 13.289062 10.371094 C 13.289062 10.078125 13.054688 9.84375 12.761719 9.84375 Z M 12.761719 9.84375 "/>
<path style=" stroke:none;fill-rule:nonzero;fill:rgb(100%,100%,100%);fill-opacity:1;" d="M 7.582031 12.65625 L 5.027344 12.65625 C 4.734375 12.65625 4.5 12.890625 4.5 13.183594 C 4.5 13.476562 4.734375 13.710938 5.027344 13.710938 L 7.582031 13.710938 C 7.875 13.710938 8.109375 13.476562 8.109375 13.183594 C 8.109375 12.890625 7.875 12.65625 7.582031 12.65625 Z M 7.582031 12.65625 "/>
</g>
</svg>
