<svg width="20" height="20" viewBox="0 0 20 20" fill="none" xmlns="http://www.w3.org/2000/svg">
<g id="clipboard-list">
<g id="Vector">
<path d="M12.3077 10.7363H6.92304C6.60766 10.7363 6.34612 10.4727 6.34612 10.1549C6.34612 9.83705 6.60766 9.57348 6.92304 9.57348H12.3077C12.623 9.57348 12.8846 9.83705 12.8846 10.1549C12.8846 10.4727 12.623 10.7363 12.3077 10.7363Z" fill="#A0AEC0"/>
<path d="M10.2923 13.837H6.92304C6.60766 13.837 6.34612 13.5735 6.34612 13.2557C6.34612 12.9378 6.60766 12.6743 6.92304 12.6743H10.2923C10.6077 12.6743 10.8692 12.9378 10.8692 13.2557C10.8692 13.5735 10.6077 13.837 10.2923 13.837Z" fill="#A0AEC0"/>
<path d="M11.5384 5.93007H8.46151C7.72304 5.93007 6.34612 5.93007 6.34612 3.79829C6.34612 1.6665 7.72304 1.6665 8.46151 1.6665H11.5384C12.2769 1.6665 13.6538 1.6665 13.6538 3.79829C13.6538 4.54247 13.6538 5.93007 11.5384 5.93007ZM8.46151 2.82929C7.69997 2.82929 7.49997 2.82929 7.49997 3.79829C7.49997 4.76728 7.69997 4.76728 8.46151 4.76728H11.5384C12.5 4.76728 12.5 4.56573 12.5 3.79829C12.5 2.82929 12.3 2.82929 11.5384 2.82929H8.46151Z" fill="#A0AEC0"/>
<path d="M12.3077 18.3332H7.69231C3.36923 18.3332 2.5 16.3332 2.5 13.1006V8.44944C2.5 4.91456 3.76923 3.40293 6.89231 3.24014C7.2 3.22463 7.48462 3.46494 7.5 3.79052C7.51538 4.11611 7.26923 4.37967 6.95385 4.39518C4.76923 4.51921 3.65385 5.17812 3.65385 8.44944V13.1006C3.65385 15.9688 4.21538 17.1704 7.69231 17.1704H12.3077C15.7846 17.1704 16.3462 15.9688 16.3462 13.1006V8.44944C16.3462 5.17812 15.2308 4.51921 13.0462 4.39518C12.7308 4.37967 12.4846 4.1006 12.5 3.78277C12.5154 3.46494 12.7923 3.21688 13.1077 3.23239C16.2308 3.40293 17.5 4.91456 17.5 8.44169V13.0929C17.5 16.3332 16.6308 18.3332 12.3077 18.3332Z" fill="#A0AEC0"/>
</g>
</g>
</svg>
