<svg width="20" height="20" viewBox="0 0 20 20" fill="none" xmlns="http://www.w3.org/2000/svg">
<g id="clipboard-list">
<g id="Vector">
<path d="M12.3077 10.7368H6.92304C6.60766 10.7368 6.34612 10.4732 6.34612 10.1554C6.34612 9.83754 6.60766 9.57397 6.92304 9.57397H12.3077C12.623 9.57397 12.8846 9.83754 12.8846 10.1554C12.8846 10.4732 12.623 10.7368 12.3077 10.7368Z" fill="white"/>
<path d="M10.2923 13.8375H6.92304C6.60766 13.8375 6.34612 13.574 6.34612 13.2561C6.34612 12.9383 6.60766 12.6747 6.92304 12.6747H10.2923C10.6077 12.6747 10.8692 12.9383 10.8692 13.2561C10.8692 13.574 10.6077 13.8375 10.2923 13.8375Z" fill="white"/>
<path d="M11.5384 5.93056H8.46151C7.72304 5.93056 6.34612 5.93056 6.34612 3.79878C6.34612 1.66699 7.72304 1.66699 8.46151 1.66699H11.5384C12.2769 1.66699 13.6538 1.66699 13.6538 3.79878C13.6538 4.54296 13.6538 5.93056 11.5384 5.93056ZM8.46151 2.82978C7.69997 2.82978 7.49997 2.82978 7.49997 3.79878C7.49997 4.76777 7.69997 4.76777 8.46151 4.76777H11.5384C12.5 4.76777 12.5 4.56622 12.5 3.79878C12.5 2.82978 12.3 2.82978 11.5384 2.82978H8.46151Z" fill="white"/>
<path d="M12.3077 18.3337H7.69231C3.36923 18.3337 2.5 16.3336 2.5 13.1011V8.44993C2.5 4.91504 3.76923 3.40342 6.89231 3.24063C7.2 3.22512 7.48462 3.46543 7.5 3.79101C7.51538 4.11659 7.26923 4.38016 6.95385 4.39566C4.76923 4.5197 3.65385 5.17861 3.65385 8.44993V13.1011C3.65385 15.9693 4.21538 17.1709 7.69231 17.1709H12.3077C15.7846 17.1709 16.3462 15.9693 16.3462 13.1011V8.44993C16.3462 5.17861 15.2308 4.5197 13.0462 4.39566C12.7308 4.38016 12.4846 4.10109 12.5 3.78326C12.5154 3.46543 12.7923 3.21737 13.1077 3.23287C16.2308 3.40342 17.5 4.91504 17.5 8.44218V13.0933C17.5 16.3336 16.6308 18.3337 12.3077 18.3337Z" fill="white"/>
</g>
</g>
</svg>
