<svg width="338" height="211" viewBox="0 0 338 211" fill="none" xmlns="http://www.w3.org/2000/svg">
<path d="M116.958 11.9364C116.958 17.2478 125.471 21.5535 119.547 21.5535C113.623 21.5535 108.82 17.2478 108.82 11.9364C108.82 6.62506 113.623 2.31934 119.547 2.31934C125.471 2.31934 116.958 6.62506 116.958 11.9364Z" fill="#FE964A"/>
<path d="M201.077 7.29688L202.517 11.727H207.175L203.406 14.465L204.846 18.8952L201.077 16.1572L197.309 18.8952L198.748 14.465L194.98 11.727H199.638L201.077 7.29688Z" fill="#FE964A"/>
<path d="M43.6093 100.944C43.6093 100.944 57.2748 94.1381 60.3748 97.7055C62.0779 99.6654 63.364 102.039 61.8387 103.968C60.663 105.455 58.9654 105.644 56.9764 105.295C52.7644 104.555 52.8283 98.7059 54.5191 95.0834C56.8535 90.0818 69.2455 93.034 69.2455 93.034" stroke="#0BA259" stroke-width="2.56456"/>
<circle cx="291.332" cy="94.1255" r="7.47997" fill="#FFEDEC"/>
<path d="M71.1579 172.571L72.2222 163.391L79.6416 168.095L80.4873 160.394L87.2549 165.056L89.3626 156.731" stroke="#2F78EE" stroke-width="2.13713"/>
<path d="M245.668 27.5445C245.668 27.5445 244.627 21.3644 247.613 20.1326C250.121 19.0978 252.296 23.6741 254.357 22.015C256.444 20.3344 251.233 17.672 252.93 15.6619C254.716 13.5464 260.452 15.6619 260.452 15.6619" stroke="#2F78EE" stroke-width="2.56456"/>
<path d="M41.7981 18.2817L69.269 31.9576L62.403 41.3206L41.7981 18.2817Z" fill="#2F78EE"/>
<circle cx="285.139" cy="119.58" r="3.2057" fill="#FFEDEC"/>
<path d="M254.333 161.778C257.856 162.132 261.28 156.773 260.885 160.702C260.489 164.632 257.312 167.53 253.789 167.175C250.266 166.821 247.731 163.348 248.126 159.418C248.522 155.489 250.809 161.423 254.333 161.778Z" fill="#2F78EE"/>
<path d="M265.768 49.2451L268.167 56.6287L275.93 56.6287L269.649 61.1921L272.049 68.5757L265.768 64.0123L259.487 68.5757L261.886 61.1921L255.605 56.6287L263.369 56.6287L265.768 49.2451Z" fill="#0BA259"/>
<rect x="105.174" y="32.5" width="127.143" height="127.143" rx="63.5714" fill="#27A376"/>
<g filter="url(#filter0_d_371_58102)">
<rect x="130.604" y="57.9287" width="76.2857" height="76.2857" rx="38.1429" fill="white" shape-rendering="crispEdges"/>
<path fill-rule="evenodd" clip-rule="evenodd" d="M182.586 87.0016C183.206 87.6223 183.206 88.6286 182.586 89.2492L166.693 105.142C166.072 105.763 165.066 105.763 164.445 105.142L156.499 97.1956C155.878 96.575 155.878 95.5687 156.499 94.9481C157.119 94.3274 158.126 94.3274 158.746 94.9481L165.569 101.771L180.338 87.0016C180.959 86.381 181.965 86.381 182.586 87.0016Z" fill="#111827"/>
</g>
<defs>
<filter id="filter0_d_371_58102" x="79.7464" y="32.5001" width="177.999" height="178" filterUnits="userSpaceOnUse" color-interpolation-filters="sRGB">
<feFlood flood-opacity="0" result="BackgroundImageFix"/>
<feColorMatrix in="SourceAlpha" type="matrix" values="0 0 0 0 0 0 0 0 0 0 0 0 0 0 0 0 0 0 127 0" result="hardAlpha"/>
<feOffset dy="25.4286"/>
<feGaussianBlur stdDeviation="25.4286"/>
<feComposite in2="hardAlpha" operator="out"/>
<feColorMatrix type="matrix" values="0 0 0 0 0 0 0 0 0 0 0 0 0 0 0 0 0 0 0.3 0"/>
<feBlend mode="normal" in2="BackgroundImageFix" result="effect1_dropShadow_371_58102"/>
<feBlend mode="normal" in="SourceGraphic" in2="effect1_dropShadow_371_58102" result="shape"/>
</filter>
</defs>
</svg>
