<svg width="20" height="20" viewBox="0 0 20 20" fill="none" xmlns="http://www.w3.org/2000/svg">
<g id="fi_1008014">
<g id="Group">
<g id="Group_2">
<path id="Vector" d="M18.6297 5.5197L18.6149 5.49411C18.5944 5.45157 18.5707 5.41083 18.5443 5.37212L15.7619 0.56172C15.5615 0.215235 15.1884 0 14.7881 0H5.21239C4.8115 0 4.43806 0.215743 4.23771 0.563165L1.40997 5.46888C1.3845 5.5131 1.36614 5.55935 1.35317 5.60634C1.31336 5.7138 1.29149 5.82993 1.29149 5.95111V18.6216C1.29149 19.3816 1.90981 20 2.66981 20H17.3302C18.0902 20 18.7085 19.3816 18.7085 18.6216V5.90466C18.7085 5.88767 18.708 5.87079 18.7071 5.854C18.715 5.74122 18.6906 5.62493 18.6297 5.5197ZM10.6062 1.17231H14.7608L16.9496 4.95642H10.6062V1.17231ZM5.2397 1.17231H9.43389V4.95642H3.05845L5.2397 1.17231ZM17.5362 18.6217C17.5362 18.7353 17.4437 18.8277 17.3302 18.8277H2.66981C2.55622 18.8277 2.4638 18.7353 2.4638 18.6217V6.12872H17.5362V18.6217Z" fill="white"/>
</g>
</g>
<g id="Group_3">
<g id="Group_4">
<path id="Vector_2" d="M12.6608 10.5486C12.4319 10.3197 12.0607 10.3197 11.8318 10.5486L9.21455 13.1659L8.20815 12.1595C7.97928 11.9306 7.60811 11.9306 7.3792 12.1595C7.15029 12.3883 7.15029 12.7595 7.3792 12.9884L8.80014 14.4093C8.91459 14.5237 9.06463 14.581 9.21459 14.581C9.36456 14.581 9.51463 14.5237 9.62905 14.4093L12.6608 11.3776C12.8897 11.1486 12.8897 10.7775 12.6608 10.5486Z" fill="white"/>
</g>
</g>
</g>
</svg>
