<svg width="20" height="20" viewBox="0 0 20 20" fill="none" xmlns="http://www.w3.org/2000/svg">
<g id="fi_17460302" clip-path="url(#clip0_352_4125)">
<g id="Clip path group">
<mask id="mask0_352_4125" style="mask-type:luminance" maskUnits="userSpaceOnUse" x="0" y="0" width="20" height="20">
<g id="clip0_501_26526">
<path id="Vector" d="M0 0H20V20H0V0Z" fill="white"/>
</g>
</mask>
<g mask="url(#mask0_352_4125)">
<g id="Group">
<path id="Vector_2" d="M6.08977 13.2632C5.77499 13.1215 5.40499 13.262 5.26335 13.5767C5.12172 13.8915 5.26208 14.2615 5.57686 14.4031L7.24353 15.153C7.5583 15.2947 7.9283 15.1543 8.06994 14.8395C8.21158 14.5247 8.07121 14.1548 7.75644 14.0131L6.08977 13.2632Z" fill="#A0AEC0"/>
<path id="Vector_3" fill-rule="evenodd" clip-rule="evenodd" d="M11.4932 1.38001C10.5464 0.939739 9.45357 0.939739 8.50674 1.38L3.09006 3.89865C1.84071 4.47956 1.04166 5.73231 1.04166 7.11011V12.9556C1.04166 14.344 1.85286 15.6043 3.11656 16.1793L8.53324 18.6439C9.46507 19.0679 10.5349 19.0679 11.4667 18.6439L16.8834 16.1793C18.1472 15.6043 18.9583 14.344 18.9583 12.9556V7.11011C18.9583 5.73231 18.1592 4.47956 16.9099 3.89865L11.4932 1.38001ZM9.03374 2.51346C9.64641 2.22859 10.3536 2.22859 10.9662 2.51346L16.3829 5.03211C16.7726 5.21331 17.0946 5.49555 17.3236 5.83917L14.8407 7.01526L7.28499 3.32661L9.03374 2.51346ZM5.82565 4.00517L3.61709 5.03211C3.22738 5.21331 2.90539 5.49555 2.67638 5.83916L9.99999 9.30821L13.3947 7.70026L5.82565 4.00517ZM2.29271 7.04056L9.37532 10.3955L9.37582 17.6253C9.26541 17.594 9.15682 17.5543 9.05091 17.5061L3.63424 15.0415C2.81655 14.6695 2.29166 13.854 2.29166 12.9556V7.11011C2.29166 7.08687 2.29201 7.06369 2.29271 7.04056ZM10.6258 17.6248C10.7357 17.5936 10.8437 17.5541 10.9491 17.5061L16.3657 15.0415C17.1834 14.6695 17.7083 13.854 17.7083 12.9556V7.11011C17.7083 7.08688 17.708 7.0637 17.7072 7.04058L10.6253 10.3951L10.6258 17.6248Z" fill="#A0AEC0"/>
</g>
</g>
</g>
</g>
<defs>
<clipPath id="clip0_352_4125">
<rect width="20" height="20" fill="white"/>
</clipPath>
</defs>
</svg>
