<svg width="20" height="20" viewBox="0 0 20 20" fill="none" xmlns="http://www.w3.org/2000/svg">
<g id="fi_17460302" clip-path="url(#clip0_357_9373)">
<g id="Clip path group">
<mask id="mask0_357_9373" style="mask-type:luminance" maskUnits="userSpaceOnUse" x="0" y="0" width="20" height="20">
<g id="clip0_501_26526">
<path id="Vector" d="M0 0H20V20H0V0Z" fill="white"/>
</g>
</mask>
<g mask="url(#mask0_357_9373)">
<g id="Group">
<path id="Vector_2" d="M6.0898 13.2642C5.77502 13.1225 5.40502 13.2629 5.26338 13.5777C5.12175 13.8924 5.26211 14.2624 5.57689 14.4041L7.24356 15.154C7.55833 15.2957 7.92833 15.1553 8.06997 14.8405C8.21161 14.5257 8.07124 14.1558 7.75647 14.0141L6.0898 13.2642Z" fill="white"/>
<path id="Vector_3" fill-rule="evenodd" clip-rule="evenodd" d="M11.4933 1.38098C10.5464 0.940716 9.45359 0.940716 8.50676 1.38097L3.09007 3.89962C1.84072 4.48054 1.04167 5.73329 1.04167 7.11109V12.9566C1.04167 14.3449 1.85287 15.6053 3.11657 16.1803L8.53325 18.6449C9.46509 19.0689 10.5349 19.0689 11.4668 18.6449L16.8834 16.1803C18.1472 15.6053 18.9583 14.3449 18.9583 12.9566V7.11109C18.9583 5.73329 18.1593 4.48054 16.9099 3.89962L11.4933 1.38098ZM9.03375 2.51444C9.64642 2.22957 10.3536 2.22957 10.9663 2.51444L16.3829 5.03308C16.7726 5.21429 17.0946 5.49652 17.3236 5.84015L14.8408 7.01623L7.285 3.32758L9.03375 2.51444ZM5.82566 4.00615L3.61711 5.03308C3.2274 5.21429 2.9054 5.49652 2.6764 5.84014L10 9.30919L13.3947 7.70124L5.82566 4.00615ZM2.29272 7.04154L9.37534 10.3965L9.37584 17.6263C9.26542 17.5949 9.15684 17.5553 9.05092 17.5071L3.63426 15.0425C2.81656 14.6704 2.29167 13.8549 2.29167 12.9566V7.11109C2.29167 7.08785 2.29202 7.06467 2.29272 7.04154ZM10.6258 17.6258C10.7357 17.5946 10.8438 17.555 10.9491 17.5071L16.3658 15.0425C17.1834 14.6704 17.7083 13.8549 17.7083 12.9566V7.11109C17.7083 7.08786 17.708 7.06467 17.7073 7.04156L10.6253 10.3961L10.6258 17.6258Z" fill="white"/>
</g>
</g>
</g>
</g>
<defs>
<clipPath id="clip0_357_9373">
<rect width="20" height="20" fill="white"/>
</clipPath>
</defs>
</svg>
