<svg width="20" height="20" viewBox="0 0 20 20" fill="none" xmlns="http://www.w3.org/2000/svg">
<g id="Search">
<g id="Vector">
<path fill-rule="evenodd" clip-rule="evenodd" d="M9.80547 2.93994C6.01378 2.93994 2.94 6.01372 2.94 9.80541C2.94 13.5971 6.01378 16.6709 9.80547 16.6709C13.5972 16.6709 16.6709 13.5971 16.6709 9.80541C16.6709 6.01372 13.5972 2.93994 9.80547 2.93994ZM1.69 9.80541C1.69 5.32336 5.32342 1.68994 9.80547 1.68994C14.2875 1.68994 17.9209 5.32336 17.9209 9.80541C17.9209 14.2875 14.2875 17.9209 9.80547 17.9209C5.32342 17.9209 1.69 14.2875 1.69 9.80541Z" fill="#111827"/>
<path fill-rule="evenodd" clip-rule="evenodd" d="M14.5727 14.9628C14.8165 14.7184 15.2122 14.7179 15.4566 14.9617L18.3933 17.8907C18.6377 18.1345 18.6382 18.5302 18.3944 18.7746C18.1507 19.019 17.7549 19.0195 17.5106 18.7758L14.5739 15.8467C14.3295 15.6029 14.329 15.2072 14.5727 14.9628Z" fill="#111827"/>
</g>
</g>
</svg>
