<?xml version="1.0" encoding="UTF-8"?>
<svg xmlns="http://www.w3.org/2000/svg" xmlns:xlink="http://www.w3.org/1999/xlink" width="18px" height="18px" viewBox="0 0 18 18" version="1.1">
<g id="surface1">
<path style=" stroke:none;fill-rule:evenodd;fill:rgb(100%,100%,100%);fill-opacity:1;" d="M 9.710938 3.371094 C 9.527344 2.625 8.472656 2.625 8.289062 3.371094 C 7.992188 4.589844 6.597656 5.171875 5.523438 4.515625 C 4.867188 4.117188 4.121094 4.867188 4.519531 5.519531 C 4.667969 5.769531 4.761719 6.050781 4.785156 6.34375 C 4.804688 6.636719 4.757812 6.925781 4.648438 7.199219 C 4.535156 7.46875 4.363281 7.707031 4.140625 7.898438 C 3.917969 8.085938 3.652344 8.222656 3.371094 8.289062 C 2.625 8.472656 2.625 9.527344 3.371094 9.710938 C 3.652344 9.777344 3.917969 9.914062 4.140625 10.105469 C 4.359375 10.292969 4.535156 10.53125 4.648438 10.804688 C 4.757812 11.074219 4.804688 11.363281 4.78125 11.65625 C 4.757812 11.945312 4.667969 12.230469 4.515625 12.476562 C 4.117188 13.132812 4.867188 13.878906 5.519531 13.480469 C 5.769531 13.332031 6.050781 13.238281 6.34375 13.214844 C 6.636719 13.195312 6.925781 13.242188 7.199219 13.351562 C 7.46875 13.464844 7.707031 13.636719 7.898438 13.859375 C 8.085938 14.082031 8.222656 14.347656 8.289062 14.628906 C 8.472656 15.375 9.527344 15.375 9.710938 14.628906 C 9.777344 14.347656 9.914062 14.082031 10.105469 13.859375 C 10.292969 13.640625 10.53125 13.464844 10.804688 13.351562 C 11.074219 13.242188 11.363281 13.195312 11.65625 13.21875 C 11.945312 13.242188 12.230469 13.332031 12.476562 13.484375 C 13.132812 13.882812 13.878906 13.132812 13.480469 12.480469 C 13.332031 12.230469 13.238281 11.949219 13.214844 11.65625 C 13.195312 11.363281 13.242188 11.074219 13.351562 10.800781 C 13.464844 10.53125 13.636719 10.292969 13.859375 10.101562 C 14.082031 9.914062 14.347656 9.777344 14.628906 9.710938 C 15.375 9.527344 15.375 8.472656 14.628906 8.289062 C 14.347656 8.222656 14.082031 8.085938 13.859375 7.894531 C 13.640625 7.707031 13.464844 7.46875 13.351562 7.195312 C 13.242188 6.925781 13.195312 6.636719 13.21875 6.34375 C 13.242188 6.054688 13.332031 5.769531 13.484375 5.523438 C 13.882812 4.867188 13.132812 4.121094 12.480469 4.519531 C 12.230469 4.667969 11.949219 4.761719 11.65625 4.785156 C 11.363281 4.804688 11.074219 4.757812 10.800781 4.648438 C 10.53125 4.535156 10.292969 4.363281 10.101562 4.140625 C 9.914062 3.917969 9.777344 3.652344 9.710938 3.371094 Z M 7.195312 3.105469 C 7.65625 1.214844 10.34375 1.214844 10.804688 3.105469 C 10.828125 3.21875 10.882812 3.320312 10.957031 3.410156 C 11.03125 3.496094 11.128906 3.5625 11.234375 3.609375 C 11.339844 3.652344 11.453125 3.671875 11.570312 3.660156 C 11.683594 3.652344 11.796875 3.617188 11.894531 3.558594 C 13.554688 2.546875 15.457031 4.445312 14.445312 6.105469 C 14.382812 6.207031 14.347656 6.316406 14.339844 6.429688 C 14.332031 6.546875 14.347656 6.660156 14.394531 6.765625 C 14.4375 6.871094 14.503906 6.96875 14.59375 7.042969 C 14.679688 7.117188 14.785156 7.171875 14.894531 7.195312 C 16.785156 7.65625 16.785156 10.34375 14.894531 10.804688 C 14.78125 10.828125 14.679688 10.882812 14.589844 10.957031 C 14.503906 11.03125 14.4375 11.128906 14.390625 11.234375 C 14.347656 11.339844 14.328125 11.453125 14.339844 11.570312 C 14.347656 11.683594 14.382812 11.796875 14.441406 11.894531 C 15.453125 13.554688 13.554688 15.457031 11.894531 14.445312 C 11.792969 14.382812 11.683594 14.347656 11.570312 14.339844 C 11.453125 14.332031 11.339844 14.347656 11.234375 14.394531 C 11.125 14.4375 11.03125 14.503906 10.957031 14.59375 C 10.882812 14.679688 10.832031 14.785156 10.804688 14.894531 C 10.34375 16.785156 7.65625 16.785156 7.195312 14.894531 C 7.171875 14.78125 7.117188 14.679688 7.042969 14.589844 C 6.96875 14.503906 6.871094 14.4375 6.765625 14.390625 C 6.660156 14.347656 6.546875 14.328125 6.429688 14.339844 C 6.316406 14.347656 6.203125 14.382812 6.105469 14.441406 C 4.445312 15.453125 2.542969 13.554688 3.554688 11.894531 C 3.617188 11.792969 3.652344 11.683594 3.660156 11.570312 C 3.667969 11.453125 3.652344 11.339844 3.605469 11.234375 C 3.5625 11.125 3.496094 11.03125 3.40625 10.957031 C 3.320312 10.882812 3.214844 10.832031 3.105469 10.804688 C 1.214844 10.34375 1.214844 7.65625 3.105469 7.195312 C 3.21875 7.171875 3.320312 7.117188 3.410156 7.042969 C 3.496094 6.96875 3.5625 6.871094 3.609375 6.765625 C 3.652344 6.660156 3.671875 6.546875 3.660156 6.429688 C 3.652344 6.316406 3.617188 6.203125 3.558594 6.105469 C 2.546875 4.445312 4.445312 2.542969 6.105469 3.554688 C 6.53125 3.8125 7.078125 3.585938 7.195312 3.105469 Z M 7.195312 3.105469 "/>
<path style=" stroke:none;fill-rule:evenodd;fill:rgb(100%,100%,100%);fill-opacity:1;" d="M 9 7.3125 C 8.066406 7.3125 7.3125 8.066406 7.3125 9 C 7.3125 9.933594 8.066406 10.6875 9 10.6875 C 9.933594 10.6875 10.6875 9.933594 10.6875 9 C 10.6875 8.066406 9.933594 7.3125 9 7.3125 Z M 6.1875 9 C 6.1875 7.445312 7.445312 6.1875 9 6.1875 C 10.554688 6.1875 11.8125 7.445312 11.8125 9 C 11.8125 10.554688 10.554688 11.8125 9 11.8125 C 7.445312 11.8125 6.1875 10.554688 6.1875 9 Z M 6.1875 9 "/>
</g>
</svg>
