<svg width="24" height="25" viewBox="0 0 24 25" fill="none" xmlns="http://www.w3.org/2000/svg">
<g id="Group">
<path id="Vector" d="M12 1L16.226 7.183L23.413 9.292L18.838 15.222L19.053 22.708L12 20.19L4.94704 22.708L5.16204 15.222L0.587036 9.292L7.77404 7.183L12 1ZM12 4.544L9.02204 8.902L3.95704 10.387L7.18204 14.565L7.02904 19.84L12 18.066L16.97 19.84L16.818 14.565L20.042 10.387L14.978 8.902L12 4.544ZM10 12.5C10 13.0304 10.2108 13.5391 10.5858 13.9142C10.9609 14.2893 11.4696 14.5 12 14.5C12.5305 14.5 13.0392 14.2893 13.4142 13.9142C13.7893 13.5391 14 13.0304 14 12.5H16C16 13.5609 15.5786 14.5783 14.8285 15.3284C14.0783 16.0786 13.0609 16.5 12 16.5C10.9392 16.5 9.92175 16.0786 9.17161 15.3284C8.42146 14.5783 8.00004 13.5609 8.00004 12.5H10Z" fill="black"/>
</g>
</svg>
