<svg width="20" height="20" viewBox="0 0 20 20" fill="none" xmlns="http://www.w3.org/2000/svg">
<g id="timer">
<g id="Vector">
<path fill-rule="evenodd" clip-rule="evenodd" d="M10 4.37484C6.32019 4.37484 3.33334 7.36168 3.33334 11.0415C3.33334 14.7213 6.32019 17.7082 10 17.7082C13.6798 17.7082 16.6667 14.7213 16.6667 11.0415C16.6667 7.36168 13.6798 4.37484 10 4.37484ZM2.08334 11.0415C2.08334 6.67133 5.62983 3.12484 10 3.12484C14.3702 3.12484 17.9167 6.67133 17.9167 11.0415C17.9167 15.4117 14.3702 18.9582 10 18.9582C5.62983 18.9582 2.08334 15.4117 2.08334 11.0415Z" fill="#A0AEC0"/>
<path fill-rule="evenodd" clip-rule="evenodd" d="M10 6.0415C10.3452 6.0415 10.625 6.32133 10.625 6.6665V10.8332C10.625 11.1783 10.3452 11.4582 10 11.4582C9.65483 11.4582 9.37501 11.1783 9.37501 10.8332V6.6665C9.37501 6.32133 9.65483 6.0415 10 6.0415Z" fill="#A0AEC0"/>
<path fill-rule="evenodd" clip-rule="evenodd" d="M6.87501 1.6665C6.87501 1.32133 7.15483 1.0415 7.50001 1.0415H12.5C12.8452 1.0415 13.125 1.32133 13.125 1.6665C13.125 2.01168 12.8452 2.2915 12.5 2.2915H7.50001C7.15483 2.2915 6.87501 2.01168 6.87501 1.6665Z" fill="#A0AEC0"/>
</g>
</g>
</svg>
