<svg width="20" height="20" viewBox="0 0 20 20" fill="none" xmlns="http://www.w3.org/2000/svg">
<g id="timer">
<g id="Vector">
<path fill-rule="evenodd" clip-rule="evenodd" d="M10 4.37533C6.32019 4.37533 3.33334 7.36217 3.33334 11.042C3.33334 14.7218 6.32019 17.7087 10 17.7087C13.6798 17.7087 16.6667 14.7218 16.6667 11.042C16.6667 7.36217 13.6798 4.37533 10 4.37533ZM2.08334 11.042C2.08334 6.67181 5.62983 3.12533 10 3.12533C14.3702 3.12533 17.9167 6.67181 17.9167 11.042C17.9167 15.4122 14.3702 18.9587 10 18.9587C5.62983 18.9587 2.08334 15.4122 2.08334 11.042Z" fill="white"/>
<path fill-rule="evenodd" clip-rule="evenodd" d="M10 6.04199C10.3452 6.04199 10.625 6.32181 10.625 6.66699V10.8337C10.625 11.1788 10.3452 11.4587 10 11.4587C9.65483 11.4587 9.37501 11.1788 9.37501 10.8337V6.66699C9.37501 6.32181 9.65483 6.04199 10 6.04199Z" fill="white"/>
<path fill-rule="evenodd" clip-rule="evenodd" d="M6.87501 1.66699C6.87501 1.32181 7.15483 1.04199 7.50001 1.04199H12.5C12.8452 1.04199 13.125 1.32181 13.125 1.66699C13.125 2.01217 12.8452 2.29199 12.5 2.29199H7.50001C7.15483 2.29199 6.87501 2.01217 6.87501 1.66699Z" fill="white"/>
</g>
</g>
</svg>
