<svg width="102" height="36" viewBox="0 0 102 36" fill="none" xmlns="http://www.w3.org/2000/svg">
<path d="M2 25V10.84H7.52C8.6 10.84 9.54 11.0067 10.34 11.34C11.1533 11.66 11.78 12.18 12.22 12.9C12.66 13.6067 12.88 14.5533 12.88 15.74C12.88 16.8467 12.6333 17.7733 12.14 18.52C11.66 19.2667 11 19.8267 10.16 20.2C9.32 20.56 8.36667 20.74 7.3 20.74H4.86V25H2ZM4.86 18.18H7.26C8.11333 18.18 8.78667 17.98 9.28 17.58C9.78667 17.1667 10.04 16.5467 10.04 15.72C10.04 14.9867 9.82667 14.4333 9.4 14.06C8.98667 13.6867 8.32 13.5 7.4 13.5H4.86V18.18ZM14.6664 25V14.46H17.1864L17.3664 15.72C17.6331 15.32 17.9331 15.02 18.2664 14.82C18.5997 14.6067 18.9464 14.4667 19.3064 14.4C19.6664 14.32 20.0331 14.28 20.4064 14.28C20.5797 14.28 20.7397 14.2867 20.8864 14.3C21.0331 14.3 21.1397 14.3 21.2064 14.3V17H20.5464C19.9197 17 19.3731 17.1067 18.9064 17.32C18.4397 17.5333 18.0797 17.8667 17.8264 18.32C17.5864 18.7733 17.4664 19.3533 17.4664 20.06V25H14.6664ZM27.2427 25.14C26.176 25.14 25.2427 24.9267 24.4427 24.5C23.6427 24.06 23.0227 23.44 22.5827 22.64C22.1427 21.8267 21.9227 20.8667 21.9227 19.76C21.9227 18.6267 22.1427 17.6533 22.5827 16.84C23.036 16.0133 23.6627 15.38 24.4627 14.94C25.2627 14.5 26.1827 14.28 27.2227 14.28C28.2893 14.28 29.216 14.5067 30.0027 14.96C30.7893 15.4133 31.4027 16.0467 31.8427 16.86C32.2827 17.6733 32.5027 18.6467 32.5027 19.78C32.5027 20.8867 32.2827 21.8467 31.8427 22.66C31.416 23.46 30.8093 24.0733 30.0227 24.5C29.2493 24.9267 28.3227 25.14 27.2427 25.14ZM27.2027 22.58C27.816 22.58 28.3093 22.4467 28.6827 22.18C29.056 21.9133 29.3227 21.5667 29.4827 21.14C29.656 20.7 29.7427 20.24 29.7427 19.76C29.7427 19.28 29.656 18.82 29.4827 18.38C29.3227 17.94 29.056 17.58 28.6827 17.3C28.3227 17.0067 27.8293 16.86 27.2027 16.86C26.6027 16.86 26.116 17.0067 25.7427 17.3C25.3693 17.58 25.096 17.94 24.9227 18.38C24.7627 18.82 24.6827 19.28 24.6827 19.76C24.6827 20.2533 24.7627 20.7133 24.9227 21.14C25.096 21.5667 25.3693 21.9133 25.7427 22.18C26.116 22.4467 26.6027 22.58 27.2027 22.58Z" fill="#003DF6"/>
<path d="M36.6992 25V13.5H32.3792V10.84H43.9192V13.5H39.5792V25H36.6992ZM44.8031 25V14.46H47.3231L47.5031 15.72C47.7698 15.32 48.0698 15.02 48.4031 14.82C48.7365 14.6067 49.0831 14.4667 49.4431 14.4C49.8031 14.32 50.1698 14.28 50.5431 14.28C50.7165 14.28 50.8765 14.2867 51.0231 14.3C51.1698 14.3 51.2765 14.3 51.3431 14.3V17H50.6831C50.0565 17 49.5098 17.1067 49.0431 17.32C48.5765 17.5333 48.2165 17.8667 47.9631 18.32C47.7231 18.7733 47.6031 19.3533 47.6031 20.06V25H44.8031ZM55.9947 25.14C55.5147 25.14 55.048 25.08 54.5947 24.96C54.1547 24.8267 53.7614 24.6267 53.4147 24.36C53.068 24.0933 52.7947 23.76 52.5947 23.36C52.3947 22.96 52.2947 22.4933 52.2947 21.96C52.2947 21.24 52.4414 20.6667 52.7347 20.24C53.028 19.8 53.4214 19.4667 53.9147 19.24C54.408 19.0133 54.9747 18.86 55.6147 18.78C56.268 18.7 56.9414 18.66 57.6347 18.66H59.1547C59.1547 18.2733 59.0814 17.9333 58.9347 17.64C58.8014 17.3333 58.5947 17.1 58.3147 16.94C58.0347 16.7667 57.6747 16.68 57.2347 16.68C56.9547 16.68 56.6814 16.72 56.4147 16.8C56.1614 16.8667 55.948 16.9667 55.7747 17.1C55.6014 17.2333 55.488 17.4067 55.4347 17.62H52.5947C52.6747 17.0333 52.8614 16.5333 53.1547 16.12C53.448 15.6933 53.8147 15.3467 54.2547 15.08C54.6947 14.8133 55.1747 14.62 55.6947 14.5C56.228 14.3667 56.7747 14.3 57.3347 14.3C58.868 14.3 60.0014 14.74 60.7347 15.62C61.468 16.4867 61.8347 17.72 61.8347 19.32V25H59.3147L59.2747 23.64C58.9414 24.1067 58.5614 24.4467 58.1347 24.66C57.7214 24.8733 57.3214 25.0067 56.9347 25.06C56.548 25.1133 56.2347 25.14 55.9947 25.14ZM56.6347 22.92C57.1014 22.92 57.528 22.8267 57.9147 22.64C58.3014 22.4533 58.608 22.2 58.8347 21.88C59.0614 21.56 59.1747 21.2 59.1747 20.8V20.54H57.2547C56.9747 20.54 56.7014 20.5533 56.4347 20.58C56.1814 20.6067 55.948 20.66 55.7347 20.74C55.5347 20.8067 55.3747 20.92 55.2547 21.08C55.1347 21.24 55.0747 21.4533 55.0747 21.72C55.0747 21.9867 55.1414 22.2133 55.2747 22.4C55.4214 22.5733 55.6147 22.7067 55.8547 22.8C56.0947 22.88 56.3547 22.92 56.6347 22.92ZM68.3619 25.14C67.2952 25.14 66.4085 24.9 65.7019 24.42C65.0085 23.9267 64.4885 23.2733 64.1419 22.46C63.7952 21.6333 63.6219 20.72 63.6219 19.72C63.6219 18.6667 63.8085 17.7333 64.1819 16.92C64.5552 16.0933 65.1085 15.4467 65.8419 14.98C66.5752 14.5133 67.4885 14.28 68.5819 14.28C68.9552 14.28 69.3219 14.3267 69.6819 14.42C70.0552 14.5 70.3952 14.6267 70.7019 14.8C71.0219 14.96 71.2952 15.1733 71.5219 15.44V10.84H74.3219V25H71.6019L71.5619 23.82C71.3219 24.1267 71.0285 24.38 70.6819 24.58C70.3485 24.7667 69.9885 24.9067 69.6019 25C69.2152 25.0933 68.8019 25.14 68.3619 25.14ZM68.9219 22.62C69.5219 22.62 70.0085 22.48 70.3819 22.2C70.7685 21.92 71.0552 21.56 71.2419 21.12C71.4285 20.68 71.5219 20.2067 71.5219 19.7C71.5219 19.18 71.4285 18.7067 71.2419 18.28C71.0685 17.84 70.7885 17.4933 70.4019 17.24C70.0285 16.9733 69.5352 16.84 68.9219 16.84C68.3085 16.84 67.8152 16.98 67.4419 17.26C67.0685 17.54 66.8019 17.9067 66.6419 18.36C66.4952 18.8 66.4219 19.2733 66.4219 19.78C66.4219 20.1533 66.4619 20.5133 66.5419 20.86C66.6352 21.1933 66.7819 21.4933 66.9819 21.76C67.1819 22.0267 67.4419 22.24 67.7619 22.4C68.0819 22.5467 68.4685 22.62 68.9219 22.62ZM81.3419 25.14C80.2352 25.14 79.2952 24.92 78.5219 24.48C77.7485 24.04 77.1552 23.42 76.7419 22.62C76.3285 21.8067 76.1219 20.86 76.1219 19.78C76.1219 18.6867 76.3352 17.7333 76.7619 16.92C77.1885 16.0933 77.7885 15.4467 78.5619 14.98C79.3485 14.5133 80.2752 14.28 81.3419 14.28C82.1419 14.28 82.8419 14.4133 83.4419 14.68C84.0552 14.9467 84.5685 15.32 84.9819 15.8C85.4085 16.28 85.7219 16.84 85.9219 17.48C86.1352 18.1067 86.2352 18.7867 86.2219 19.52C86.2219 19.7067 86.2152 19.8867 86.2019 20.06C86.1885 20.2333 86.1619 20.4067 86.1219 20.58H78.9019C78.9419 20.98 79.0552 21.3467 79.2419 21.68C79.4285 22.0133 79.6885 22.28 80.0219 22.48C80.3685 22.6667 80.7952 22.76 81.3019 22.76C81.6352 22.76 81.9419 22.7267 82.2219 22.66C82.5019 22.58 82.7419 22.46 82.9419 22.3C83.1419 22.14 83.2819 21.9533 83.3619 21.74H86.1219C85.9485 22.5267 85.6219 23.1733 85.1419 23.68C84.6752 24.1867 84.1085 24.56 83.4419 24.8C82.7752 25.0267 82.0752 25.14 81.3419 25.14ZM78.9619 18.62H83.5419C83.5285 18.26 83.4352 17.9267 83.2619 17.62C83.1019 17.3 82.8552 17.0467 82.5219 16.86C82.2019 16.66 81.7885 16.56 81.2819 16.56C80.7752 16.56 80.3485 16.66 80.0019 16.86C79.6685 17.06 79.4152 17.32 79.2419 17.64C79.0819 17.9467 78.9885 18.2733 78.9619 18.62Z" fill="white"/>
<path d="M96.9645 15.3295C96.3916 15.3295 95.8684 15.1899 95.3949 14.9105C94.9214 14.6264 94.5426 14.2476 94.2585 13.7741C93.9792 13.3007 93.8395 12.7775 93.8395 12.2045C93.8395 11.6269 93.9792 11.1037 94.2585 10.6349C94.5426 10.1615 94.9214 9.78504 95.3949 9.50568C95.8684 9.22159 96.3916 9.07955 96.9645 9.07955C97.5421 9.07955 98.0653 9.22159 98.5341 9.50568C99.0076 9.78504 99.384 10.1615 99.6634 10.6349C99.9474 11.1037 100.089 11.6269 100.089 12.2045C100.089 12.7775 99.9474 13.3007 99.6634 13.7741C99.384 14.2476 99.0076 14.6264 98.5341 14.9105C98.0653 15.1899 97.5421 15.3295 96.9645 15.3295Z" fill="#003DF6"/>
</svg>
